<?xml version="1.0" encoding="iso-8859-1"?>
<!-- Uploaded to: SVG Repo, www.svgrepo.com, Generator: SVG Repo Mixer Tools -->
<svg fill="#000000" version="1.1" id="Capa_1" xmlns="http://www.w3.org/2000/svg" xmlns:xlink="http://www.w3.org/1999/xlink" 
	 viewBox="0 0 60.1 60.1" xml:space="preserve">
<g>
	<g>
		<path d="M59.05,20.05h-22v2h21v16h-21v2h22c0.6,0,1-0.4,1-1v-18C60.05,20.45,59.65,20.05,59.05,20.05z"/>
		<path d="M2.05,22.05h21v-2h-22c-0.6,0-1,0.4-1,1v18c0,0.6,0.4,1,1,1h22v-2h-21V22.05z"/>
		<path d="M39.05,35.05h2c1.2,0,2-0.8,2-2v-2c0-1.2-0.8-2-2-2h-2v-2h2v1h2v-1c0-1.2-0.8-2-2-2h-2c-1.2,0-2,0.8-2,2v2
			c0,1.2,0.8,2,2,2h2v2h-2v-1h-2v1C37.05,34.25,37.85,35.05,39.05,35.05z"/>
		<path d="M32.05,35.05c1.2,0,2-0.8,2-2v-6c0-1.2-0.8-2-2-2h-4c-0.6,0-1,0.4-1,1v8c0,0.6,0.4,1,1,1H32.05z M29.05,27.05h3v6h-3
			V27.05z"/>
		<path d="M18.05,25.05c-0.6,0-1,0.4-1,1v9h2v-3h3v3h2v-9c0-0.6-0.4-1-1-1H18.05z M19.05,30.05v-3h3v3H19.05z"/>
		<rect x="46.05" y="29.05" width="2" height="2"/>
		<rect x="42.05" y="0.05" width="2" height="2"/>
		<rect x="42.05" y="4.05" width="2" height="2"/>
		<rect x="42.05" y="8.05" width="2" height="2"/>
		<rect x="42.05" y="12.05" width="2" height="2"/>
		<rect x="16.05" y="0.05" width="2" height="2"/>
		<rect x="16.05" y="4.05" width="2" height="2"/>
		<rect x="16.05" y="8.05" width="2" height="2"/>
		<rect x="16.05" y="12.05" width="2" height="2"/>
		<rect x="42.05" y="46.05" width="2" height="2"/>
		<rect x="42.05" y="50.05" width="2" height="2"/>
		<rect x="42.05" y="54.05" width="2" height="2"/>
		<rect x="42.05" y="58.05" width="2" height="2"/>
		<rect x="16.05" y="46.05" width="2" height="2"/>
		<rect x="16.05" y="50.05" width="2" height="2"/>
		<rect x="16.05" y="54.05" width="2" height="2"/>
		<rect x="16.05" y="58.05" width="2" height="2"/>
		<rect x="4.05" y="24.05" width="2" height="2"/>
		<rect x="4.05" y="34.05" width="2" height="2"/>
		<rect x="54.05" y="24.05" width="2" height="2"/>
		<rect x="54.05" y="34.05" width="2" height="2"/>
		<path d="M30.85,37.55c-0.4-0.6-1.3-0.6-1.7,0l-5,8c-0.2,0.3-0.2,0.7,0,1s0.5,0.5,0.9,0.5h2v3c0,0.6,0.4,1,1,1h1v9h2v-9h1
			c0.6,0,1-0.4,1-1v-3h2c0.4,0,0.7-0.2,0.8-0.5c0.2-0.3,0.2-0.7,0-1L30.85,37.55z M32.05,45.05c-0.6,0-1,0.4-1,1v3h-2v-3
			c0-0.6-0.4-1-1-1h-1.2l3.2-5.1l3.2,5.1H32.05z"/>
		<path d="M54.85,41.55c-0.4-0.6-1.3-0.6-1.7,0l-5,8c-0.2,0.3-0.2,0.7,0,1s0.5,0.5,0.9,0.5h2v3c0,0.6,0.4,1,1,1h1v5h2v-5h1
			c0.6,0,1-0.4,1-1v-3h2c0.4,0,0.7-0.2,0.8-0.5c0.2-0.3,0.2-0.7,0-1L54.85,41.55z M56.05,49.05c-0.6,0-1,0.4-1,1v3h-2v-3
			c0-0.6-0.4-1-1-1h-1.2l3.2-5.1l3.2,5.1H56.05z"/>
		<path d="M6.85,41.55c-0.4-0.6-1.3-0.6-1.7,0l-5,8c-0.2,0.3-0.2,0.7,0,1s0.5,0.5,0.9,0.5h2v3c0,0.6,0.4,1,1,1h1v5h2v-5h1
			c0.6,0,1-0.4,1-1v-3h2c0.4,0,0.7-0.2,0.8-0.5c0.2-0.3,0.2-0.7,0-1L6.85,41.55z M8.05,49.05c-0.6,0-1,0.4-1,1v3h-2v-3
			c0-0.6-0.4-1-1-1h-1.2l3.2-5.1l3.2,5.1H8.05z"/>
		<path d="M35.05,13.05h-2v-3c0-0.6-0.4-1-1-1h-1v-9h-2v9h-1c-0.6,0-1,0.4-1,1v3h-2c-0.4,0-0.6,0.2-0.8,0.5s-0.2,0.7,0,1l5,8
			c0.1,0.3,0.5,0.5,0.8,0.5s0.7-0.2,0.9-0.5l5-8c0.2-0.3,0.2-0.7,0-1S35.45,13.05,35.05,13.05z M30.05,20.15l-3.2-5.1h1.2
			c0.6,0,1-0.4,1-1v-3h2v3c0,0.6,0.4,1,1,1h1.2L30.05,20.15z"/>
		<path d="M5.25,18.55c0.1,0.3,0.5,0.5,0.8,0.5s0.7-0.2,0.9-0.5l5-8c0.2-0.3,0.2-0.7,0-1s-0.5-0.5-0.9-0.5h-2v-3c0-0.6-0.4-1-1-1h-1
			v-5h-2v5h-1c-0.6,0-1,0.4-1,1v3h-2c-0.4,0-0.6,0.2-0.8,0.5s-0.2,0.7,0,1L5.25,18.55z M4.05,11.05c0.6,0,1-0.4,1-1v-3h2v3
			c0,0.6,0.4,1,1,1h1.2l-3.2,5.1l-3.2-5.1H4.05z"/>
		<path d="M53.25,18.55c0.1,0.3,0.5,0.5,0.8,0.5s0.7-0.2,0.9-0.5l5-8c0.2-0.3,0.2-0.7,0-1s-0.5-0.5-0.9-0.5h-2v-3c0-0.6-0.4-1-1-1
			h-1v-5h-2v5h-1c-0.6,0-1,0.4-1,1v3h-2c-0.4,0-0.7,0.2-0.8,0.5c-0.2,0.3-0.2,0.7,0,1L53.25,18.55z M52.05,11.05c0.6,0,1-0.4,1-1v-3
			h2v3c0,0.6,0.4,1,1,1h1.2l-3.2,5.1l-3.2-5.1H52.05z"/>
	</g>
</g>
</svg>